<svg width="120" height="120" viewBox="0 0 120 120" fill="none" xmlns="http://www.w3.org/2000/svg">
  <!-- Sun -->
  <g stroke="#FFD700" stroke-width="2" stroke-linecap="round">
    <line x1="40" y1="15" x2="40" y2="22"/>
    <line x1="40" y1="68" x2="40" y2="75"/>
    <line x1="15" y1="40" x2="22" y2="40"/>
    <line x1="68" y1="40" x2="75" y2="40"/>
    <line x1="23.5" y1="23.5" x2="28.5" y2="28.5"/>
    <line x1="51.5" y1="51.5" x2="56.5" y2="56.5"/>
    <line x1="23.5" y1="56.5" x2="28.5" y2="51.5"/>
    <line x1="51.5" y1="28.5" x2="56.5" y2="23.5"/>
  </g>
  <circle cx="40" cy="40" r="15" fill="#FFD700"/>
  
  <!-- Partial cloud -->
  <g fill="#F0F8FF">
    <circle cx="55" cy="65" r="15"/>
    <circle cx="70" cy="60" r="18"/>
    <circle cx="85" cy="62" r="16"/>
    <circle cx="100" cy="65" r="14"/>
    <rect x="40" y="65" width="60" height="15" rx="7"/>
  </g>
  
  <!-- Cloud shadow -->
  <g fill="#E6E6FA" opacity="0.5">
    <circle cx="57" cy="67" r="15"/>
    <circle cx="72" cy="62" r="18"/>
  </g>
</svg>